<?xml version="1.0" encoding="iso-8859-1"?>
<!-- Uploaded to: SVG Repo, www.svgrepo.com, Generator: SVG Repo Mixer Tools -->
<svg version="1.1" id="Layer_1" xmlns="http://www.w3.org/2000/svg" xmlns:xlink="http://www.w3.org/1999/xlink" 
	 viewBox="0 0 512 512" xml:space="preserve">
<path style="fill:#F5AC51;" d="M50.637,388.22C22.671,388.22,0,433.396,0,461.363C0,489.329,22.671,512,50.637,512h427.604
	C496.886,512,512,496.886,512,478.242L50.637,388.22z"/>
<path style="fill:#FFEAB2;" d="M461.363,67.516h-33.758l50.637,408.25L512,478.242V118.154
	C512,90.191,489.326,67.516,461.363,67.516z"/>
<path style="fill:#FFF3D4;" d="M478.242,118.154v357.612L50.637,444.484V67.516h376.967
	C455.568,67.516,478.242,90.191,478.242,118.154z"/>
<polygon style="fill:#FFE08F;" points="405.099,0 405.099,298.198 348.835,320.703 371.341,0 "/>
<path style="fill:#FFEAB2;" d="M371.341,0v309.451l-78.769,101.275H50.637C22.674,410.725,0,433.4,0,461.363V50.637
	C0,22.674,22.674,0,50.637,0H371.341z"/>
<rect x="157.538" y="50.637" style="fill:#E26142;" width="135.033" height="135.033"/>
<polygon style="fill:#FFD159;" points="292.571,298.198 292.571,410.725 405.099,298.198 "/>
<path style="fill:#FFE08F;" d="M478.242,444.484H50.637v33.758H512C512,459.597,496.886,444.484,478.242,444.484z"/>
<g>
	<path style="fill:#AB5D4A;" d="M337.582,272.879c-4.662,0-8.44-3.778-8.44-8.44V50.637c0-4.662,3.778-8.44,8.44-8.44
		s8.44,3.778,8.44,8.44V264.44C346.022,269.102,342.244,272.879,337.582,272.879z"/>
	<path style="fill:#AB5D4A;" d="M292.571,272.879c-4.662,0-8.44-3.778-8.44-8.44v-39.385c0-4.662,3.778-8.44,8.44-8.44
		s8.44,3.778,8.44,8.44v39.385C301.011,269.102,297.233,272.879,292.571,272.879z"/>
	<path style="fill:#AB5D4A;" d="M247.56,368.527c-4.661,0-8.44-3.778-8.44-8.44V225.055c0-4.662,3.779-8.44,8.44-8.44
		s8.44,3.778,8.44,8.44v135.033C256,364.75,252.221,368.527,247.56,368.527z"/>
	<path style="fill:#AB5D4A;" d="M202.549,368.527c-4.661,0-8.44-3.778-8.44-8.44V225.055c0-4.662,3.779-8.44,8.44-8.44
		c4.661,0,8.44,3.778,8.44,8.44v135.033C210.989,364.75,207.21,368.527,202.549,368.527z"/>
	<path style="fill:#AB5D4A;" d="M157.538,368.527c-4.661,0-8.44-3.778-8.44-8.44V225.055c0-4.662,3.779-8.44,8.44-8.44
		s8.44,3.778,8.44,8.44v135.033C165.978,364.75,162.199,368.527,157.538,368.527z"/>
	<path style="fill:#AB5D4A;" d="M112.527,368.527c-4.661,0-8.44-3.778-8.44-8.44V50.637c0-4.662,3.779-8.44,8.44-8.44
		c4.661,0,8.44,3.778,8.44,8.44v309.451C120.967,364.75,117.188,368.527,112.527,368.527z"/>
	<path style="fill:#AB5D4A;" d="M67.516,368.527c-4.661,0-8.44-3.778-8.44-8.44V50.637c0-4.662,3.779-8.44,8.44-8.44
		s8.44,3.778,8.44,8.44v309.451C75.956,364.75,72.177,368.527,67.516,368.527z"/>
</g>
<g>
	<circle style="fill:#FFE08F;" cx="458.549" cy="357.275" r="8.44"/>
	<circle style="fill:#FFE08F;" cx="424.791" cy="391.033" r="8.44"/>
</g>
</svg>